<svg width="69" height="77" viewBox="0 0 69 77" fill="none" xmlns="http://www.w3.org/2000/svg">
<g clip-path="url(#clip0_148_66)">
<path d="M37.4619 64.7349C36.7895 64.7187 36.2575 64.1651 36.2739 63.5002C36.2902 62.8352 36.8499 62.3074 37.5222 62.3251C53.7507 62.6399 66.7081 49.7329 66.7081 34.104C66.7081 18.6837 54.0514 5.87468 38.167 5.87468C21.6781 5.87468 8.63712 19.7001 9.68291 35.8959C10.1844 43.8197 14.0862 51.2144 20.3847 56.1851C20.9102 56.5994 20.9967 57.358 20.5778 57.8777C20.159 58.3974 19.392 58.4829 18.8666 58.0687C15.661 55.5373 12.8525 52.2936 10.7823 48.436C8.71631 44.5807 7.52835 40.4126 7.25096 36.045C6.13477 18.2199 20.4343 3.46338 38.1664 3.46338C55.2693 3.46338 69.1431 17.1746 69.1431 34.1017C69.1431 46.64 61.4962 57.6165 50.2242 62.3324C46.1114 64.0529 41.7076 64.8454 37.4615 64.7342L37.4619 64.7349Z" fill="white"/>
<path d="M31.5812 64.049C30.9007 63.9037 30.2159 63.7321 29.5474 63.5411C28.9012 63.356 28.5286 62.6889 28.7157 62.0498C28.9028 61.4106 29.5774 61.0421 30.2236 61.2271C30.8377 61.4025 31.4681 61.5596 32.0958 61.693C32.754 61.8345 33.1712 62.4759 33.0303 63.1248C32.8824 63.7984 32.2095 64.1906 31.5813 64.0491L31.5812 64.049Z" fill="white"/>
<path d="M64.0646 48.9715C63.4342 48.7407 63.1122 48.0472 63.3461 47.4221C64.0891 45.4368 64.0972 43.7437 63.3722 42.3858C62.1744 40.1455 59.2266 39.1276 57.5752 38.7215C56.9573 38.5703 56.3067 38.5601 55.6442 38.6913C50.5201 39.7189 46.9338 37.0939 45.3433 32.0141C44.6971 29.9471 45.2508 27.6767 46.7892 26.0917C47.3995 25.4622 47.3913 25.0006 47.3309 24.7058C46.9725 22.9374 43.3622 20.8844 41.6815 20.1715C41.6777 20.1693 41.6711 20.1677 41.6673 20.1655C38.9873 18.9825 37.3647 17.278 36.8429 15.0975C36.126 12.0986 37.5599 8.41433 41.0993 4.14838C41.5263 3.63457 42.2933 3.55873 42.8149 3.98107C43.3344 4.4034 43.4111 5.162 42.9841 5.67791C41.1036 7.944 38.5302 11.674 39.2151 14.546C39.5556 15.9739 40.681 17.0929 42.6539 17.9656C42.7926 18.0253 44.2444 18.6564 45.7871 19.6565C48.0804 21.1419 49.4033 22.6818 49.7215 24.2307C49.9005 25.1071 49.8423 26.4312 48.5498 27.7638C47.6235 28.7155 47.2895 30.0739 47.6741 31.3028C48.9485 35.3771 51.4692 37.0703 55.1643 36.3294C56.1853 36.1244 57.196 36.1422 58.1685 36.3832C64.4485 37.9284 67.9439 42.0829 65.6365 48.2603C65.3912 48.8919 64.6846 49.2029 64.0645 48.9716L64.0646 48.9715Z" fill="white"/>
<path d="M7.4669 36.6749C7.03608 36.1632 7.10626 35.4041 7.6241 34.978C8.14139 34.5519 8.90893 34.6213 9.33969 35.1335C16.6869 43.8703 26.373 35.777 26.1419 32.3854C26.1256 32.1406 26.0853 31.5627 24.9278 31.276C20.4037 30.165 18.7909 26.7534 20.5162 22.1572C21.0559 20.7234 21.7342 19.6818 21.7624 19.6399C21.8109 19.5662 21.8669 19.4984 21.9316 19.4365C24.8288 16.6286 24.6901 13.5141 21.5068 9.91312C21.064 9.41116 21.1162 8.6504 21.6216 8.21242C22.1291 7.77447 22.8982 7.82612 23.341 8.32594C27.3337 12.8404 27.4729 17.3555 23.7398 21.0553C23.1033 22.077 21.7945 24.7994 22.4571 26.6991C22.9081 27.9877 24.1809 28.6048 25.5196 28.9395C27.3478 29.3935 28.459 30.5906 28.5722 32.2256C28.9628 37.9775 16.3143 47.1804 7.46716 36.675L7.4669 36.6749Z" fill="white"/>
<path d="M13.4603 69.6271L-0.629231 59.7336C-1.34181 59.2337 -1.30591 58.1722 -0.554708 57.7203L7.04819 53.1602C7.44093 52.9251 7.93212 52.9272 8.32267 53.1661L16.0081 57.884L41.7643 42.4553C47.0091 39.3129 53.8188 40.9775 56.9845 46.1537C57.3327 46.7234 57.1499 47.4643 56.5739 47.8087L19.7695 69.8539C17.8057 71.0284 15.333 70.9428 13.4606 69.6263L13.4603 69.6271ZM2.29354 58.8296L14.8714 67.6616C15.9484 68.4186 17.3762 68.4703 18.5056 67.7929L54.196 46.4143C51.5822 43.2417 46.8406 42.2302 43.0253 44.5162L16.6314 60.3264C16.2386 60.5615 15.7474 60.5593 15.3569 60.3204L7.67142 55.6026L2.29354 58.8296Z" fill="white"/>
<path d="M26.1253 53.945L16.1405 48.5978C15.7559 48.3928 15.5122 47.9984 15.5025 47.5664C15.4921 47.1344 15.7157 46.7298 16.0883 46.5071L19.6583 44.3685C19.9221 44.2114 20.2382 44.1576 20.54 44.2189L34.5892 47.1307C35.2474 47.2679 35.6706 47.9055 35.5313 48.5565C35.3926 49.2075 34.748 49.6261 34.0898 49.4883L20.5089 46.6745L19.1681 47.4772L27.2823 51.8243C27.8741 52.1412 28.0939 52.8718 27.7735 53.4571C27.4662 54.0306 26.7373 54.2679 26.1248 53.9451L26.1253 53.945Z" fill="white"/>
<path d="M30.7652 72.4754L30.5982 61.2455C30.5879 60.5805 31.1259 60.0328 31.7982 60.0226C32.5108 60.0226 33.0243 60.5741 33.0346 61.2095L33.1695 70.3364L34.5103 69.5337L38.2793 56.3259C38.4627 55.6846 39.135 55.3123 39.7834 55.4936C40.4318 55.6749 40.8082 56.3399 40.6249 56.9813L36.7247 70.6468C36.6404 70.9416 36.4468 71.1923 36.183 71.35L32.6129 73.4885C31.8182 73.9727 30.777 73.4094 30.7651 72.4755L30.7652 72.4754Z" fill="white"/>
<path d="M46.5035 48.0364C44.0834 48.0364 41.77 46.722 40.6163 44.4376C40.3161 43.842 40.5619 43.1195 41.1641 42.8224C41.7663 42.5254 42.4968 42.7686 42.7971 43.3642C43.848 45.485 46.5564 46.2797 48.6283 45.039C49.5285 44.4994 50.1807 43.6509 50.4625 42.6491C50.6437 42.0078 51.316 41.6333 51.9644 41.8125C52.6127 41.9916 52.9914 42.6566 52.8102 43.2979C52.0046 46.1467 49.3893 48.0361 46.5036 48.0361L46.5035 48.0364Z" fill="white"/>
<path d="M18.6015 63.0697L18.0597 62.1858C17.7116 61.616 17.8944 60.8752 18.4704 60.5308C19.0465 60.1865 19.7955 60.3672 20.1437 60.937L20.6855 61.821C21.0336 62.3907 20.8508 63.1315 20.2748 63.4759C19.7107 63.8186 18.9557 63.6476 18.6015 63.0697Z" fill="white"/>
<path d="M22.0884 60.9804L21.5466 60.0964C21.1985 59.5267 21.3813 58.7858 21.9573 58.4415C22.5333 58.0971 23.2824 58.2779 23.6306 58.8477L24.1723 59.7316C24.5205 60.3014 24.3377 61.0422 23.7617 61.3866C23.1834 61.7336 22.4366 61.5502 22.0884 60.9804Z" fill="white"/>
<path d="M25.5739 58.8937L25.0321 58.0098C24.684 57.44 24.8667 56.6992 25.4428 56.3548C26.0188 56.0104 26.7679 56.1912 27.116 56.761L27.6578 57.645C28.006 58.2147 27.8232 58.9555 27.2471 59.2999C26.6635 59.6486 25.9204 59.4592 25.5739 58.8937Z" fill="white"/>
<path d="M30.1024 57.3856C29.6895 57.3856 29.2892 57.1785 29.0596 56.804L28.5178 55.9201C28.1697 55.3503 28.3525 54.6095 28.9285 54.2651C29.5046 53.9207 30.2536 54.1015 30.6018 54.6713L31.1435 55.5552C31.6407 56.3682 31.0348 57.3855 30.1024 57.3855L30.1024 57.3856Z" fill="white"/>
<path d="M32.5462 54.715L32.0045 53.831C31.6563 53.2613 31.8391 52.5204 32.4152 52.1761C32.9912 51.8317 33.7402 52.0125 34.0884 52.5823L34.6302 53.4662C34.9783 54.036 34.7955 54.7768 34.2195 55.1212C33.6554 55.4639 32.9004 55.2928 32.5462 54.715Z" fill="white"/>
<path d="M36.0317 52.6283L35.49 51.7444C35.1418 51.1746 35.3246 50.4338 35.9006 50.0894C36.4767 49.7451 37.2257 49.9258 37.5739 50.4956L38.1157 51.3795C38.4638 51.9493 38.281 52.6901 37.705 53.0345C37.1409 53.3772 36.3859 53.2061 36.0317 52.6283Z" fill="white"/>
<path d="M39.5186 50.539L38.9768 49.655C38.6287 49.0853 38.8115 48.3444 39.3875 48C39.9636 47.6557 40.7126 47.8365 41.0608 48.4062L41.6026 49.2902C41.9507 49.8599 41.7679 50.6008 41.1919 50.9452C40.6142 51.2916 39.8668 51.1087 39.5186 50.539Z" fill="white"/>
</g>
<defs>
<clipPath id="clip0_148_66">
<rect width="70" height="77" fill="white" transform="translate(-1)"/>
</clipPath>
</defs>
</svg>
