<svg width="232" height="72" viewBox="0 0 232 72" fill="none" xmlns="http://www.w3.org/2000/svg">
<path d="M7.0752 8.2334C6.55371 8.2334 6.09082 8.33594 5.68652 8.54102C5.28809 8.74023 4.95117 9.03027 4.67578 9.41113C4.40625 9.79199 4.20117 10.252 4.06055 10.791C3.91992 11.3301 3.84961 11.9365 3.84961 12.6104C3.84961 13.5186 3.96094 14.2949 4.18359 14.9395C4.41211 15.5781 4.76367 16.0674 5.23828 16.4072C5.71289 16.7412 6.3252 16.9082 7.0752 16.9082C7.59668 16.9082 8.11816 16.8496 8.63965 16.7324C9.16699 16.6152 9.73828 16.4482 10.3535 16.2314V18.5166C9.78516 18.751 9.22559 18.918 8.6748 19.0176C8.12402 19.123 7.50586 19.1758 6.82031 19.1758C5.49609 19.1758 4.40625 18.9033 3.55078 18.3584C2.70117 17.8076 2.07129 17.04 1.66113 16.0557C1.25098 15.0654 1.0459 13.9111 1.0459 12.5928C1.0459 11.6201 1.17773 10.7295 1.44141 9.9209C1.70508 9.1123 2.0918 8.41211 2.60156 7.82031C3.11133 7.22852 3.74121 6.77148 4.49121 6.44922C5.24121 6.12695 6.10254 5.96582 7.0752 5.96582C7.71387 5.96582 8.35254 6.04785 8.99121 6.21191C9.63574 6.37012 10.251 6.58984 10.8369 6.87109L9.95801 9.08594C9.47754 8.85742 8.99414 8.6582 8.50781 8.48828C8.02148 8.31836 7.54395 8.2334 7.0752 8.2334ZM19.7016 8.98926C20.809 8.98926 21.7025 9.41992 22.3822 10.2812C23.0678 11.1426 23.4105 12.4053 23.4105 14.0693C23.4105 15.1826 23.2494 16.1201 22.9271 16.8818C22.6049 17.6377 22.1596 18.209 21.5912 18.5957C21.0229 18.9824 20.3695 19.1758 19.6313 19.1758C19.1566 19.1758 18.7494 19.1172 18.4096 19C18.0697 18.877 17.7797 18.7217 17.5395 18.5342C17.2992 18.3408 17.0912 18.1357 16.9154 17.9189H16.7748C16.8217 18.1533 16.8568 18.3936 16.8803 18.6396C16.9037 18.8857 16.9154 19.126 16.9154 19.3604V23.3242H14.2348V9.17383H16.4145L16.7924 10.4482H16.9154C17.0912 10.1846 17.3051 9.94141 17.557 9.71875C17.809 9.49609 18.1107 9.32031 18.4623 9.19141C18.8197 9.05664 19.2328 8.98926 19.7016 8.98926ZM18.8402 11.1338C18.3715 11.1338 17.9994 11.2305 17.724 11.4238C17.4486 11.6172 17.2465 11.9072 17.1176 12.2939C16.9945 12.6807 16.9271 13.1699 16.9154 13.7617V14.0518C16.9154 14.6846 16.974 15.2207 17.0912 15.6602C17.2143 16.0996 17.4164 16.4336 17.6977 16.6621C17.9848 16.8906 18.3773 17.0049 18.8754 17.0049C19.2855 17.0049 19.6225 16.8906 19.8861 16.6621C20.1498 16.4336 20.3461 16.0996 20.475 15.6602C20.6098 15.2148 20.6771 14.6729 20.6771 14.0342C20.6771 13.0732 20.5277 12.3496 20.2289 11.8633C19.9301 11.377 19.4672 11.1338 18.8402 11.1338ZM31.0271 8.98926C31.9354 8.98926 32.7176 9.16504 33.3738 9.5166C34.0301 9.8623 34.5369 10.3662 34.8943 11.0283C35.2518 11.6904 35.4305 12.499 35.4305 13.4541V14.7549H29.0936C29.1229 15.5107 29.3484 16.1055 29.7703 16.5391C30.198 16.9668 30.7898 17.1807 31.5457 17.1807C32.1727 17.1807 32.7469 17.1162 33.2684 16.9873C33.7898 16.8584 34.326 16.665 34.8768 16.4072V18.4814C34.3904 18.7217 33.8807 18.8975 33.3475 19.0088C32.8201 19.1201 32.1785 19.1758 31.4227 19.1758C30.4383 19.1758 29.5652 18.9941 28.8035 18.6309C28.0477 18.2676 27.4529 17.7139 27.0193 16.9697C26.5916 16.2256 26.3777 15.2881 26.3777 14.1572C26.3777 13.0088 26.5711 12.0537 26.9578 11.292C27.3504 10.5244 27.8953 9.9502 28.5926 9.56934C29.2898 9.18262 30.1014 8.98926 31.0271 8.98926ZM31.0447 10.8965C30.5232 10.8965 30.0896 11.0635 29.7439 11.3975C29.4041 11.7314 29.2078 12.2559 29.1551 12.9707H32.9168C32.9109 12.5723 32.8377 12.2178 32.6971 11.9072C32.5623 11.5967 32.3572 11.3506 32.0818 11.1689C31.8123 10.9873 31.4666 10.8965 31.0447 10.8965ZM47.7932 9.17383V17.04H49.2346V22.5244H46.8264V19H40.217V22.5244H37.8088V17.04H38.635C39.0686 16.3779 39.4318 15.6221 39.7248 14.7725C40.0236 13.9229 40.2639 13.0234 40.4455 12.0742C40.633 11.1191 40.7678 10.1523 40.8498 9.17383H47.7932ZM45.1125 11.1865H43.0998C43.0061 11.9131 42.8859 12.6162 42.7395 13.2959C42.5988 13.9697 42.423 14.6201 42.2121 15.2471C42.0012 15.8682 41.7434 16.4658 41.4387 17.04H45.1125V11.1865ZM54.9439 9.17383V12.9531H58.6881V9.17383H61.3688V19H58.6881V14.9482H54.9439V19H52.2633V9.17383H54.9439ZM67.0254 19H64.125L66.7705 15.1152C66.4365 14.9746 66.123 14.7812 65.8301 14.5352C65.5371 14.2832 65.2998 13.9668 65.1182 13.5859C64.9365 13.2051 64.8457 12.748 64.8457 12.2148C64.8457 11.2363 65.2148 10.4863 65.9531 9.96484C66.6973 9.4375 67.6553 9.17383 68.8271 9.17383H73.3975V19H70.7168V15.3438H69.2402L67.0254 19ZM67.4736 12.2324C67.4736 12.6426 67.6348 12.9648 67.957 13.1992C68.2852 13.4277 68.707 13.542 69.2227 13.542H70.7168V11.0635H68.8799C68.3994 11.0635 68.0449 11.1807 67.8164 11.415C67.5879 11.6436 67.4736 11.916 67.4736 12.2324ZM79.0453 19H76.1449L78.7904 15.1152C78.4564 14.9746 78.143 14.7812 77.85 14.5352C77.557 14.2832 77.3197 13.9668 77.1381 13.5859C76.9564 13.2051 76.8656 12.748 76.8656 12.2148C76.8656 11.2363 77.2348 10.4863 77.973 9.96484C78.7172 9.4375 79.6752 9.17383 80.8471 9.17383H85.4174V19H82.7367V15.3438H81.2602L79.0453 19ZM79.4936 12.2324C79.4936 12.6426 79.6547 12.9648 79.977 13.1992C80.3051 13.4277 80.727 13.542 81.2426 13.542H82.7367V11.0635H80.8998C80.4193 11.0635 80.0648 11.1807 79.8363 11.415C79.6078 11.6436 79.4936 11.916 79.4936 12.2324ZM103.727 11.1865H100.51V19H97.8293V11.1865H94.6037V9.17383H103.727V11.1865ZM110.965 8.98926C111.874 8.98926 112.656 9.16504 113.312 9.5166C113.968 9.8623 114.475 10.3662 114.833 11.0283C115.19 11.6904 115.369 12.499 115.369 13.4541V14.7549H109.032C109.061 15.5107 109.287 16.1055 109.709 16.5391C110.136 16.9668 110.728 17.1807 111.484 17.1807C112.111 17.1807 112.685 17.1162 113.207 16.9873C113.728 16.8584 114.264 16.665 114.815 16.4072V18.4814C114.329 18.7217 113.819 18.8975 113.286 19.0088C112.758 19.1201 112.117 19.1758 111.361 19.1758C110.377 19.1758 109.504 18.9941 108.742 18.6309C107.986 18.2676 107.391 17.7139 106.958 16.9697C106.53 16.2256 106.316 15.2881 106.316 14.1572C106.316 13.0088 106.509 12.0537 106.896 11.292C107.289 10.5244 107.834 9.9502 108.531 9.56934C109.228 9.18262 110.04 8.98926 110.965 8.98926ZM110.983 10.8965C110.462 10.8965 110.028 11.0635 109.682 11.3975C109.342 11.7314 109.146 12.2559 109.093 12.9707H112.855C112.849 12.5723 112.776 12.2178 112.635 11.9072C112.501 11.5967 112.296 11.3506 112.02 11.1689C111.751 10.9873 111.405 10.8965 110.983 10.8965ZM131.282 9.17383V19H128.777V14.1748C128.777 13.7002 128.786 13.2344 128.804 12.7773C128.821 12.3203 128.848 11.8984 128.883 11.5117H128.83L126.114 19H124.102L121.342 11.4941H121.271C121.318 11.8867 121.351 12.3086 121.368 12.7598C121.386 13.2109 121.395 13.7061 121.395 14.2451V19H118.898V9.17383H122.695L125.139 15.8359L127.626 9.17383H131.282ZM144.383 9.17383V19H141.694V11.1865H138.134V19H135.454V9.17383H144.383ZM152.597 8.98926C153.506 8.98926 154.288 9.16504 154.944 9.5166C155.6 9.8623 156.107 10.3662 156.465 11.0283C156.822 11.6904 157.001 12.499 157.001 13.4541V14.7549H150.664C150.693 15.5107 150.919 16.1055 151.341 16.5391C151.768 16.9668 152.36 17.1807 153.116 17.1807C153.743 17.1807 154.317 17.1162 154.839 16.9873C155.36 16.8584 155.896 16.665 156.447 16.4072V18.4814C155.961 18.7217 155.451 18.8975 154.918 19.0088C154.39 19.1201 153.749 19.1758 152.993 19.1758C152.009 19.1758 151.136 18.9941 150.374 18.6309C149.618 18.2676 149.023 17.7139 148.59 16.9697C148.162 16.2256 147.948 15.2881 147.948 14.1572C147.948 13.0088 148.141 12.0537 148.528 11.292C148.921 10.5244 149.466 9.9502 150.163 9.56934C150.86 9.18262 151.672 8.98926 152.597 8.98926ZM152.615 10.8965C152.094 10.8965 151.66 11.0635 151.314 11.3975C150.974 11.7314 150.778 12.2559 150.725 12.9707H154.487C154.481 12.5723 154.408 12.2178 154.267 11.9072C154.133 11.5967 153.928 11.3506 153.652 11.1689C153.383 10.9873 153.037 10.8965 152.615 10.8965ZM165.997 8.98926C167.105 8.98926 167.998 9.41992 168.678 10.2812C169.363 11.1426 169.706 12.4053 169.706 14.0693C169.706 15.1826 169.545 16.1201 169.223 16.8818C168.901 17.6377 168.455 18.209 167.887 18.5957C167.319 18.9824 166.665 19.1758 165.927 19.1758C165.452 19.1758 165.045 19.1172 164.705 19C164.365 18.877 164.075 18.7217 163.835 18.5342C163.595 18.3408 163.387 18.1357 163.211 17.9189H163.071C163.117 18.1533 163.153 18.3936 163.176 18.6396C163.199 18.8857 163.211 19.126 163.211 19.3604V23.3242H160.53V9.17383H162.71L163.088 10.4482H163.211C163.387 10.1846 163.601 9.94141 163.853 9.71875C164.105 9.49609 164.406 9.32031 164.758 9.19141C165.115 9.05664 165.529 8.98926 165.997 8.98926ZM165.136 11.1338C164.667 11.1338 164.295 11.2305 164.02 11.4238C163.744 11.6172 163.542 11.9072 163.413 12.2939C163.29 12.6807 163.223 13.1699 163.211 13.7617V14.0518C163.211 14.6846 163.27 15.2207 163.387 15.6602C163.51 16.0996 163.712 16.4336 163.993 16.6621C164.28 16.8906 164.673 17.0049 165.171 17.0049C165.581 17.0049 165.918 16.8906 166.182 16.6621C166.446 16.4336 166.642 16.0996 166.771 15.6602C166.905 15.2148 166.973 14.6729 166.973 14.0342C166.973 13.0732 166.823 12.3496 166.525 11.8633C166.226 11.377 165.763 11.1338 165.136 11.1338ZM177.296 8.97168C178.615 8.97168 179.626 9.25879 180.329 9.83301C181.032 10.4072 181.383 11.2803 181.383 12.4521V19H179.511L178.993 17.6641H178.922C178.641 18.0156 178.354 18.3027 178.061 18.5254C177.768 18.748 177.431 18.9121 177.05 19.0176C176.67 19.123 176.207 19.1758 175.662 19.1758C175.082 19.1758 174.56 19.0645 174.097 18.8418C173.64 18.6191 173.28 18.2793 173.016 17.8223C172.753 17.3594 172.621 16.7734 172.621 16.0645C172.621 15.0215 172.987 14.2539 173.719 13.7617C174.452 13.2637 175.55 12.9883 177.015 12.9355L178.72 12.8828V12.4521C178.72 11.9365 178.586 11.5586 178.316 11.3184C178.046 11.0781 177.671 10.958 177.191 10.958C176.716 10.958 176.251 11.0254 175.794 11.1602C175.337 11.2949 174.879 11.4648 174.422 11.6699L173.535 9.85938C174.056 9.58398 174.639 9.36719 175.284 9.20898C175.934 9.05078 176.605 8.97168 177.296 8.97168ZM178.72 14.4473L177.683 14.4824C176.816 14.5059 176.212 14.6611 175.873 14.9482C175.539 15.2354 175.372 15.6133 175.372 16.082C175.372 16.4922 175.492 16.7852 175.732 16.9609C175.972 17.1309 176.286 17.2158 176.672 17.2158C177.247 17.2158 177.73 17.0459 178.123 16.7061C178.521 16.3662 178.72 15.8828 178.72 15.2559V14.4473ZM193.632 11.1865H190.415V19H187.734V11.1865H184.509V9.17383H193.632V11.1865ZM195.413 9.17383H198.348L200.203 14.7021C200.261 14.8779 200.311 15.0566 200.352 15.2383C200.393 15.4199 200.428 15.6074 200.457 15.8008C200.487 15.9941 200.51 16.1963 200.528 16.4072H200.58C200.616 16.0908 200.663 15.7949 200.721 15.5195C200.786 15.2441 200.865 14.9717 200.958 14.7021L202.778 9.17383H205.652L201.495 20.2568C201.243 20.9365 200.914 21.502 200.51 21.9531C200.106 22.4102 199.64 22.7529 199.113 22.9814C198.591 23.21 198.017 23.3242 197.39 23.3242C197.085 23.3242 196.822 23.3066 196.599 23.2715C196.376 23.2422 196.186 23.21 196.028 23.1748V21.0479C196.151 21.0771 196.306 21.1035 196.494 21.127C196.681 21.1504 196.877 21.1621 197.082 21.1621C197.457 21.1621 197.78 21.083 198.049 20.9248C198.319 20.7666 198.544 20.5527 198.726 20.2832C198.908 20.0195 199.051 19.7295 199.157 19.4131L199.315 18.9297L195.413 9.17383ZM213.884 8.98926C214.991 8.98926 215.885 9.41992 216.564 10.2812C217.25 11.1426 217.593 12.4053 217.593 14.0693C217.593 15.1826 217.431 16.1201 217.109 16.8818C216.787 17.6377 216.342 18.209 215.773 18.5957C215.205 18.9824 214.552 19.1758 213.813 19.1758C213.339 19.1758 212.931 19.1172 212.592 19C212.252 18.877 211.962 18.7217 211.721 18.5342C211.481 18.3408 211.273 18.1357 211.097 17.9189H210.957C211.004 18.1533 211.039 18.3936 211.062 18.6396C211.086 18.8857 211.097 19.126 211.097 19.3604V23.3242H208.417V9.17383H210.596L210.974 10.4482H211.097C211.273 10.1846 211.487 9.94141 211.739 9.71875C211.991 9.49609 212.293 9.32031 212.644 9.19141C213.002 9.05664 213.415 8.98926 213.884 8.98926ZM213.022 11.1338C212.554 11.1338 212.181 11.2305 211.906 11.4238C211.631 11.6172 211.429 11.9072 211.3 12.2939C211.177 12.6807 211.109 13.1699 211.097 13.7617V14.0518C211.097 14.6846 211.156 15.2207 211.273 15.6602C211.396 16.0996 211.598 16.4336 211.88 16.6621C212.167 16.8906 212.559 17.0049 213.057 17.0049C213.468 17.0049 213.804 16.8906 214.068 16.6621C214.332 16.4336 214.528 16.0996 214.657 15.6602C214.792 15.2148 214.859 14.6729 214.859 14.0342C214.859 13.0732 214.71 12.3496 214.411 11.8633C214.112 11.377 213.649 11.1338 213.022 11.1338ZM225.183 8.97168C226.501 8.97168 227.512 9.25879 228.215 9.83301C228.918 10.4072 229.27 11.2803 229.27 12.4521V19H227.398L226.879 17.6641H226.809C226.528 18.0156 226.24 18.3027 225.947 18.5254C225.654 18.748 225.318 18.9121 224.937 19.0176C224.556 19.123 224.093 19.1758 223.548 19.1758C222.968 19.1758 222.446 19.0645 221.984 18.8418C221.527 18.6191 221.166 18.2793 220.903 17.8223C220.639 17.3594 220.507 16.7734 220.507 16.0645C220.507 15.0215 220.873 14.2539 221.606 13.7617C222.338 13.2637 223.437 12.9883 224.902 12.9355L226.607 12.8828V12.4521C226.607 11.9365 226.472 11.5586 226.202 11.3184C225.933 11.0781 225.558 10.958 225.077 10.958C224.603 10.958 224.137 11.0254 223.68 11.1602C223.223 11.2949 222.766 11.4648 222.309 11.6699L221.421 9.85938C221.943 9.58398 222.526 9.36719 223.17 9.20898C223.821 9.05078 224.491 8.97168 225.183 8.97168ZM226.607 14.4473L225.57 14.4824C224.702 14.5059 224.099 14.6611 223.759 14.9482C223.425 15.2354 223.258 15.6133 223.258 16.082C223.258 16.4922 223.378 16.7852 223.618 16.9609C223.859 17.1309 224.172 17.2158 224.559 17.2158C225.133 17.2158 225.616 17.0459 226.009 16.7061C226.407 16.3662 226.607 15.8828 226.607 15.2559V14.4473Z" fill="white"/>
<path d="M172.616 60V57.6207L178.928 51.4329C179.532 50.8233 180.035 50.2817 180.437 49.8082C180.84 49.3348 181.141 48.8761 181.343 48.4322C181.544 47.9883 181.645 47.5148 181.645 47.0117C181.645 46.4376 181.514 45.9464 181.254 45.538C180.993 45.1237 180.635 44.8041 180.18 44.5792C179.724 44.3543 179.206 44.2418 178.626 44.2418C178.028 44.2418 177.504 44.3661 177.055 44.6147C176.605 44.8574 176.256 45.2036 176.007 45.6534C175.764 46.1032 175.643 46.6388 175.643 47.2603H172.509C172.509 46.1062 172.773 45.103 173.299 44.2507C173.826 43.3984 174.551 42.7385 175.474 42.271C176.404 41.8034 177.469 41.5696 178.67 41.5696C179.89 41.5696 180.961 41.7975 181.884 42.2532C182.808 42.7089 183.524 43.3333 184.033 44.1264C184.548 44.9195 184.805 45.825 184.805 46.843C184.805 47.5237 184.675 48.1925 184.414 48.8494C184.154 49.5064 183.695 50.2344 183.038 51.0334C182.387 51.8324 181.473 52.8001 180.295 53.9364L177.161 57.1236V57.2479H185.08V60H172.616ZM194.801 60.2486C193.931 60.2427 193.082 60.0917 192.254 59.7958C191.425 59.494 190.679 59.0057 190.016 58.331C189.353 57.6503 188.827 56.7478 188.436 55.6232C188.045 54.4928 187.853 53.093 187.859 51.424C187.859 49.8674 188.025 48.4795 188.356 47.2603C188.688 46.0411 189.164 45.0112 189.786 44.1708C190.407 43.3245 191.156 42.6793 192.032 42.2354C192.913 41.7915 193.899 41.5696 194.988 41.5696C196.13 41.5696 197.142 41.7945 198.024 42.2443C198.912 42.6941 199.628 43.3097 200.173 44.0909C200.717 44.8662 201.054 45.7422 201.185 46.7188H197.944C197.779 46.0204 197.438 45.464 196.923 45.0497C196.414 44.6295 195.769 44.4194 194.988 44.4194C193.727 44.4194 192.757 44.9669 192.076 46.0618C191.401 47.1567 191.061 48.66 191.055 50.5717H191.179C191.469 50.0509 191.845 49.604 192.307 49.2312C192.768 48.8583 193.289 48.5713 193.869 48.37C194.455 48.1629 195.074 48.0593 195.725 48.0593C196.79 48.0593 197.746 48.3138 198.592 48.8228C199.445 49.3318 200.119 50.0331 200.616 50.9268C201.114 51.8146 201.359 52.8326 201.353 53.9808C201.359 55.1764 201.087 56.2506 200.537 57.2035C199.986 58.1504 199.22 58.8962 198.237 59.4407C197.255 59.9852 196.109 60.2545 194.801 60.2486ZM194.784 57.5852C195.429 57.5852 196.006 57.4284 196.515 57.1147C197.024 56.801 197.426 56.3778 197.722 55.8452C198.018 55.3125 198.163 54.7147 198.157 54.0518C198.163 53.4008 198.021 52.8119 197.731 52.2852C197.447 51.7584 197.054 51.3411 196.55 51.0334C196.047 50.7256 195.473 50.5717 194.828 50.5717C194.349 50.5717 193.902 50.6635 193.488 50.8469C193.073 51.0304 192.712 51.2849 192.404 51.6104C192.097 51.93 191.854 52.3029 191.676 52.729C191.505 53.1493 191.416 53.5991 191.41 54.0785C191.416 54.7118 191.564 55.2947 191.854 55.8274C192.144 56.3601 192.544 56.7862 193.053 57.1058C193.562 57.4254 194.139 57.5852 194.784 57.5852ZM208.464 50.2255C207.677 50.2255 206.961 50.0361 206.316 49.6573C205.671 49.2726 205.156 48.7577 204.771 48.1126C204.387 47.4615 204.194 46.7424 204.194 45.9553C204.194 45.174 204.387 44.4608 204.771 43.8157C205.156 43.1647 205.671 42.6497 206.316 42.271C206.961 41.8862 207.677 41.6939 208.464 41.6939C209.252 41.6939 209.968 41.8862 210.613 42.271C211.258 42.6497 211.773 43.1647 212.158 43.8157C212.542 44.4608 212.735 45.174 212.735 45.9553C212.735 46.7424 212.542 47.4615 212.158 48.1126C211.773 48.7577 211.258 49.2726 210.613 49.6573C209.968 50.0361 209.252 50.2255 208.464 50.2255ZM208.464 47.9528C208.831 47.9528 209.166 47.864 209.468 47.6864C209.77 47.5089 210.009 47.2692 210.187 46.9673C210.37 46.6655 210.462 46.3281 210.462 45.9553C210.462 45.5883 210.37 45.2539 210.187 44.9521C210.009 44.6502 209.77 44.4105 209.468 44.233C209.166 44.0554 208.831 43.9666 208.464 43.9666C208.098 43.9666 207.763 44.0554 207.461 44.233C207.159 44.4105 206.917 44.6502 206.733 44.9521C206.556 45.2539 206.467 45.5883 206.467 45.9553C206.467 46.3222 206.556 46.6596 206.733 46.9673C206.911 47.2692 207.151 47.5089 207.452 47.6864C207.76 47.864 208.098 47.9528 208.464 47.9528ZM231.147 47.9528H227.827C227.732 47.4083 227.558 46.9259 227.303 46.5057C227.049 46.0795 226.732 45.7185 226.353 45.4226C225.975 45.1267 225.542 44.9047 225.057 44.7567C224.578 44.6029 224.06 44.5259 223.504 44.5259C222.515 44.5259 221.639 44.7745 220.876 45.2717C220.112 45.7629 219.514 46.485 219.082 47.4379C218.65 48.3848 218.434 49.5419 218.434 50.9091C218.434 52.3 218.65 53.4718 219.082 54.4247C219.52 55.3717 220.118 56.0878 220.876 56.5732C221.639 57.0526 222.512 57.2923 223.495 57.2923C224.039 57.2923 224.548 57.2212 225.022 57.0792C225.501 56.9312 225.93 56.7152 226.309 56.4311C226.694 56.147 227.016 55.7978 227.277 55.3835C227.543 54.9692 227.726 54.4957 227.827 53.9631L231.147 53.9808C231.023 54.8449 230.754 55.6558 230.339 56.4134C229.931 57.1709 229.395 57.8397 228.733 58.4197C228.07 58.9938 227.294 59.4437 226.407 59.7692C225.519 60.0888 224.533 60.2486 223.45 60.2486C221.852 60.2486 220.426 59.8787 219.171 59.1388C217.916 58.399 216.928 57.3307 216.206 55.9339C215.484 54.5372 215.123 52.8622 215.123 50.9091C215.123 48.95 215.487 47.2751 216.215 45.8842C216.943 44.4875 217.934 43.4192 219.189 42.6793C220.444 41.9395 221.864 41.5696 223.45 41.5696C224.462 41.5696 225.403 41.7116 226.273 41.9957C227.143 42.2798 227.919 42.6971 228.599 43.2475C229.28 43.792 229.839 44.4608 230.277 45.2539C230.721 46.0411 231.011 46.9407 231.147 47.9528Z" fill="white"/>
<g clip-path="url(#clip0_149_171)">
<path d="M125.516 32.9935C126.211 32.9935 126.775 32.4295 126.775 31.7338V29.197C126.775 28.5013 126.211 27.9373 125.516 27.9373C124.82 27.9373 124.256 28.5013 124.256 29.197V31.7338C124.256 32.4295 124.82 32.9935 125.516 32.9935Z" fill="white"/>
<path d="M114.087 37.605L111.89 36.3366C111.287 35.9885 110.517 36.1951 110.169 36.7977C109.821 37.4002 110.028 38.1707 110.63 38.5185L112.827 39.7869C113.428 40.1341 114.199 39.9298 114.548 39.3258C114.896 38.7232 114.689 37.9528 114.087 37.605Z" fill="white"/>
<path d="M112.827 51.5292L110.63 52.7975C110.028 53.1454 109.821 53.9158 110.169 54.5184C110.519 55.1239 111.29 55.3258 111.89 54.9794L114.087 53.711C114.689 53.3631 114.896 52.5928 114.548 51.9902C114.2 51.3878 113.43 51.1811 112.827 51.5292Z" fill="white"/>
<path d="M138.204 39.7869L140.401 38.5185C141.004 38.1706 141.21 37.4002 140.862 36.7977C140.514 36.1951 139.744 35.9885 139.141 36.3366L136.945 37.605C136.342 37.9529 136.136 38.7232 136.483 39.3258C136.833 39.9314 137.605 40.1333 138.204 39.7869Z" fill="white"/>
<path d="M143.502 47.4463C142.06 43.8827 138.562 41.5265 134.713 41.5431C133.136 38.0318 129.608 35.5798 125.516 35.5798C119.958 35.5798 115.438 40.1008 115.438 45.6579C115.438 49.2231 117.299 52.3606 120.101 54.1527C117.114 58.8716 120.51 65.0583 126.098 65.0583C145.919 65.0376 144.835 65.109 145.18 65.0018C149.583 64.5052 153 60.7708 153 56.24C153 51.066 148.579 47.0487 143.502 47.4463ZM117.957 45.658C117.957 41.4902 121.348 38.0994 125.516 38.0994C128.326 38.0994 130.782 39.6422 132.084 41.9246C128.103 43.0911 125.339 46.7253 125.295 50.895C124.044 51.0323 122.864 51.4998 121.847 52.264C119.529 50.9716 117.957 48.4953 117.957 45.658ZM144.703 62.5172C144.255 62.5536 132.823 62.5325 126.098 62.5388C121.944 62.5388 119.92 57.3898 123.01 54.5674C123.938 53.7202 125.174 53.2695 126.52 53.3919C127.332 53.4652 127.993 52.7626 127.881 51.9625C127.297 47.7943 130.525 44.0623 134.742 44.0623C137.861 44.0623 140.611 46.1621 141.428 49.1686C141.603 49.811 142.247 50.2063 142.899 50.0719C146.825 49.2598 150.481 52.2614 150.481 56.24C150.481 59.4949 147.943 62.2522 144.703 62.5172Z" fill="white"/>
</g>
<defs>
<clipPath id="clip0_149_171">
<rect width="43" height="43" fill="white" transform="translate(110 25)"/>
</clipPath>
</defs>
</svg>
