<svg width="70" height="77" viewBox="0 0 70 77" fill="none" xmlns="http://www.w3.org/2000/svg">
<g clip-path="url(#clip0_182_987)">
<path d="M38.462 64.7349C37.7897 64.7187 37.2577 64.1651 37.274 63.5002C37.2904 62.8352 37.8501 62.3074 38.5224 62.3251C54.7509 62.6399 67.7083 49.7329 67.7083 34.104C67.7083 18.6837 55.0515 5.87468 39.1672 5.87468C22.6783 5.87468 9.6373 19.7001 10.6831 35.8959C11.1846 43.8197 15.0864 51.2144 21.3849 56.1851C21.9104 56.5994 21.9968 57.358 21.578 57.8777C21.1592 58.3974 20.3922 58.4829 19.8667 58.0687C16.6611 55.5373 13.8527 52.2936 11.7824 48.436C9.71649 44.5807 8.52853 40.4126 8.25114 36.045C7.13495 18.2199 21.4344 3.46338 39.1666 3.46338C56.2695 3.46338 70.1432 17.1746 70.1432 34.1017C70.1432 46.64 62.4963 57.6165 51.2244 62.3324C47.1116 64.0529 42.7077 64.8454 38.4617 64.7342L38.462 64.7349Z" fill="black"/>
<path d="M32.5813 64.0489C31.9008 63.9036 31.216 63.732 30.5475 63.541C29.9013 63.3559 29.5287 62.6888 29.7158 62.0496C29.9029 61.4105 30.5774 61.0419 31.2236 61.227C31.8378 61.4024 32.4682 61.5595 33.0959 61.6929C33.7541 61.8344 34.1713 62.4757 34.0304 63.1246C33.8824 63.7982 33.2096 64.1904 32.5813 64.0489L32.5813 64.0489Z" fill="black"/>
<path d="M65.0647 48.9715C64.4343 48.7407 64.1123 48.0472 64.3461 47.4221C65.0892 45.4368 65.0973 43.7437 64.3723 42.3858C63.1745 40.1455 60.2267 39.1276 58.5753 38.7215C57.9574 38.5703 57.3068 38.5601 56.6443 38.6913C51.5202 39.7189 47.9339 37.0939 46.3434 32.0141C45.6972 29.9471 46.2509 27.6767 47.7892 26.0917C48.3996 25.4622 48.3914 25.0006 48.331 24.7058C47.9726 22.9374 44.3623 20.8844 42.6816 20.1715C42.6777 20.1693 42.6712 20.1677 42.6674 20.1655C39.9874 18.9825 38.3648 17.278 37.843 15.0975C37.1261 12.0986 38.5599 8.41433 42.0994 4.14838C42.5264 3.63457 43.2934 3.55873 43.815 3.98107C44.3345 4.4034 44.4112 5.162 43.9842 5.67791C42.1037 7.944 39.5303 11.674 40.2151 14.546C40.5557 15.9739 41.6811 17.0929 43.654 17.9656C43.7927 18.0253 45.2445 18.6564 46.7872 19.6565C49.0805 21.1419 50.4034 22.6818 50.7216 24.2307C50.9006 25.1071 50.8424 26.4312 49.5499 27.7638C48.6236 28.7155 48.2896 30.0739 48.6741 31.3028C49.9486 35.3771 52.4693 37.0703 56.1644 36.3294C57.1854 36.1244 58.1961 36.1422 59.1686 36.3832C65.4486 37.9284 68.944 42.0829 66.6366 48.2603C66.3913 48.8919 65.6847 49.2029 65.0646 48.9716L65.0647 48.9715Z" fill="black"/>
<path d="M8.46681 36.6749C8.036 36.1632 8.10618 35.4041 8.62401 34.978C9.14131 34.5519 9.90884 34.6213 10.3396 35.1335C17.6868 43.8703 27.373 35.777 27.1418 32.3854C27.1255 32.1406 27.0852 31.5627 25.9277 31.276C21.4036 30.165 19.7908 26.7534 21.5162 22.1572C22.0558 20.7234 22.7341 19.6818 22.7624 19.6399C22.8108 19.5662 22.8668 19.4984 22.9315 19.4365C25.8287 16.6286 25.69 13.5141 22.5067 9.91312C22.0639 9.41116 22.1161 8.6504 22.6215 8.21242C23.129 7.77447 23.8981 7.82612 24.341 8.32594C28.3336 12.8404 28.4729 17.3555 24.7397 21.0553C24.1033 22.077 22.7945 24.7994 23.457 26.6991C23.908 27.9877 25.1808 28.6048 26.5195 28.9395C28.3477 29.3935 29.459 30.5906 29.5722 32.2256C29.9627 37.9775 17.3142 47.1804 8.46708 36.675L8.46681 36.6749Z" fill="black"/>
<path d="M14.4604 69.6271L0.370838 59.7336C-0.341744 59.2337 -0.305844 58.1722 0.445361 57.7203L8.04826 53.1602C8.44099 52.9251 8.93219 52.9272 9.32274 53.1661L17.0082 57.884L42.7643 42.4553C48.0091 39.3129 54.8189 40.9775 57.9846 46.1537C58.3327 46.7234 58.15 47.4643 57.5739 47.8087L20.7695 69.8539C18.8058 71.0284 16.3331 70.9428 14.4607 69.6263L14.4604 69.6271ZM3.29361 58.8296L15.8714 67.6616C16.9485 68.4186 18.3763 68.4703 19.5056 67.7929L55.196 46.4143C52.5823 43.2417 47.8407 42.2302 44.0253 44.5162L17.6314 60.3264C17.2387 60.5615 16.7475 60.5593 16.357 60.3204L8.67149 55.6026L3.29361 58.8296Z" fill="black"/>
<path d="M27.1252 53.945L17.1404 48.5978C16.7558 48.3928 16.5121 47.9984 16.5023 47.5664C16.492 47.1344 16.7155 46.7298 17.0881 46.5071L20.6581 44.3685C20.922 44.2114 21.238 44.1576 21.5399 44.2189L35.5891 47.1307C36.2472 47.2679 36.6704 47.9055 36.5312 48.5565C36.3925 49.2075 35.7479 49.6261 35.0896 49.4883L21.5088 46.6745L20.1679 47.4772L28.2822 51.8243C28.874 52.1412 29.0937 52.8718 28.7734 53.4571C28.466 54.0306 27.7371 54.2679 27.1246 53.9451L27.1252 53.945Z" fill="black"/>
<path d="M31.7653 72.4754L31.5983 61.2455C31.588 60.5805 32.1259 60.0328 32.7983 60.0226C33.5108 60.0226 34.0243 60.5741 34.0347 61.2095L34.1696 70.3364L35.5104 69.5337L39.2794 56.3259C39.4627 55.6846 40.1351 55.3123 40.7835 55.4936C41.4319 55.6749 41.8083 56.3399 41.625 56.9813L37.7248 70.6468C37.6405 70.9416 37.4468 71.1923 37.183 71.35L33.613 73.4885C32.8183 73.9727 31.7771 73.4094 31.7651 72.4755L31.7653 72.4754Z" fill="black"/>
<path d="M47.5035 48.0364C45.0835 48.0364 42.7701 46.722 41.6163 44.4376C41.3161 43.842 41.562 43.1195 42.1641 42.8224C42.7663 42.5254 43.4968 42.7686 43.7971 43.3642C44.848 45.485 47.5564 46.2797 49.6283 45.039C50.5286 44.4994 51.1807 43.6509 51.4625 42.6491C51.6437 42.0078 52.316 41.6333 52.9644 41.8125C53.6128 41.9916 53.9914 42.6566 53.8102 43.2979C53.0046 46.1467 50.3894 48.0361 47.5036 48.0361L47.5035 48.0364Z" fill="black"/>
<path d="M19.6015 63.0696L19.0597 62.1857C18.7116 61.6159 18.8943 60.8751 19.4704 60.5307C20.0464 60.1863 20.7955 60.3671 21.1436 60.9369L21.6854 61.8208C22.0335 62.3906 21.8508 63.1314 21.2747 63.4758C20.7106 63.8185 19.9556 63.6474 19.6015 63.0696Z" fill="black"/>
<path d="M23.0883 60.9803L22.5465 60.0963C22.1984 59.5266 22.3812 58.7857 22.9572 58.4413C23.5332 58.097 24.2823 58.2778 24.6305 58.8475L25.1722 59.7315C25.5204 60.3012 25.3376 61.0421 24.7616 61.3865C24.1833 61.7335 23.4365 61.55 23.0883 60.9803Z" fill="black"/>
<path d="M26.5741 58.8936L26.0324 58.0097C25.6842 57.4399 25.867 56.6991 26.443 56.3547C27.0191 56.0103 27.7681 56.1911 28.1163 56.7609L28.6581 57.6448C29.0062 58.2146 28.8234 58.9554 28.2474 59.2998C27.6637 59.6484 26.9207 59.4591 26.5741 58.8936Z" fill="black"/>
<path d="M31.1022 57.3856C30.6894 57.3856 30.289 57.1785 30.0595 56.804L29.5177 55.9201C29.1696 55.3503 29.3523 54.6095 29.9284 54.2651C30.5044 53.9207 31.2535 54.1015 31.6017 54.6713L32.1434 55.5552C32.6406 56.3682 32.0346 57.3855 31.1023 57.3855L31.1022 57.3856Z" fill="black"/>
<path d="M33.5463 54.715L33.0045 53.831C32.6564 53.2613 32.8392 52.5204 33.4152 52.1761C33.9913 51.8317 34.7403 52.0125 35.0885 52.5823L35.6302 53.4662C35.9784 54.036 35.7956 54.7768 35.2196 55.1212C34.6555 55.4639 33.9005 55.2928 33.5463 54.715Z" fill="black"/>
<path d="M37.0317 52.6283L36.4899 51.7444C36.1417 51.1746 36.3245 50.4338 36.9006 50.0894C37.4766 49.7451 38.2256 49.9258 38.5738 50.4956L39.1156 51.3795C39.4637 51.9493 39.281 52.6901 38.7049 53.0345C38.1408 53.3772 37.3858 53.2061 37.0317 52.6283Z" fill="black"/>
<path d="M40.5185 50.539L39.9767 49.655C39.6286 49.0853 39.8113 48.3444 40.3874 48C40.9634 47.6557 41.7124 47.8365 42.0606 48.4062L42.6024 49.2902C42.9505 49.8599 42.7678 50.6008 42.1917 50.9452C41.614 51.2916 40.8667 51.1087 40.5185 50.539Z" fill="black"/>
</g>
<defs>
<clipPath id="clip0_182_987">
<rect width="70" height="77" fill="white"/>
</clipPath>
</defs>
</svg>
